# xmcd CD database file
#
# Track frame offsets:
#	150
#	25841
#	49233
#	70926
#	86941
#	107016
#	134476
#	157340
#	181636
#	214273
#
# Disc length: 3377 seconds
#
# Revision: 0
# Processed by: cddbd v1.5.2PL0 Copyright (c) Steve Scherf et al.
# Submitted via: CDex 1.60beta1-cs1
#
DISCID=910d2f0a
DTITLE=Michel Bisceglia - Invisible Light
DYEAR=1900
DGENRE=Jazz
TTITLE0=Floating
TTITLE1=Esperanza
TTITLE2=Dark Light
TTITLE3=Speed of Light
TTITLE4=O Ceu Do Alentejo
TTITLE5=Prova 21
TTITLE6=First Song
TTITLE7=At Night
TTITLE8=Prova 31
TTITLE9=The Vertov
EXTD=
EXTT0=
EXTT1=
EXTT2=
EXTT3=
EXTT4=
EXTT5=
EXTT6=
EXTT7=
EXTT8=
EXTT9=
PLAYORDER=
